<mxfile host="app.diagrams.net" modified="2022-04-26T17:32:12.856Z" agent="5.0 (Windows NT 10.0; Win64; x64) AppleWebKit/537.36 (KHTML, like Gecko) Chrome/100.0.4896.127 Safari/537.36" etag="satJU62-mPT360ZGEDbi" version="17.1.4" type="github">
  <diagram name="Page-1" id="8ce9d11a-91a2-4d17-14d8-a56ed91bf033">
    <mxGraphModel dx="2062" dy="1118" grid="1" gridSize="10" guides="1" tooltips="1" connect="1" arrows="1" fold="1" page="1" pageScale="1" pageWidth="1100" pageHeight="850" background="none" math="0" shadow="0">
      <root>
        <mxCell id="0" />
        <mxCell id="1" parent="0" />
        <mxCell id="17ea667e15c223fc-43" style="edgeStyle=orthogonalEdgeStyle;rounded=1;html=1;labelBackgroundColor=none;startArrow=none;startFill=0;startSize=5;endArrow=classicThin;endFill=1;endSize=5;jettySize=auto;orthogonalLoop=1;strokeWidth=1;fontFamily=Verdana;fontSize=8" parent="1" source="17ea667e15c223fc-13" target="17ea667e15c223fc-14" edge="1">
          <mxGeometry relative="1" as="geometry" />
        </mxCell>
        <mxCell id="17ea667e15c223fc-13" value="DNS Einträge sollen geprüft werden" style="shape=hexagon;perimeter=hexagonPerimeter;whiteSpace=wrap;html=1;rounded=0;shadow=0;labelBackgroundColor=none;strokeWidth=1;fontFamily=Verdana;fontSize=12;align=center;" parent="1" vertex="1">
          <mxGeometry x="300" y="60" width="120" height="80" as="geometry" />
        </mxCell>
        <mxCell id="17ea667e15c223fc-44" style="edgeStyle=orthogonalEdgeStyle;rounded=1;html=1;labelBackgroundColor=none;startArrow=none;startFill=0;startSize=5;endArrow=classicThin;endFill=1;endSize=5;jettySize=auto;orthogonalLoop=1;strokeWidth=1;fontFamily=Verdana;fontSize=8;entryX=0.5;entryY=0;entryDx=0;entryDy=0;entryPerimeter=0;" parent="1" source="17ea667e15c223fc-14" target="AFtI0mJJeP0NbjCr_A5s-1" edge="1">
          <mxGeometry relative="1" as="geometry">
            <mxPoint x="530" y="190" as="targetPoint" />
          </mxGeometry>
        </mxCell>
        <mxCell id="17ea667e15c223fc-14" value="Prüfe ob die Sender-E-Mail-Adresse eingestellt ist" style="rounded=1;whiteSpace=wrap;html=1;shadow=0;labelBackgroundColor=none;strokeWidth=1;fontFamily=Verdana;fontSize=12;align=center;" parent="1" vertex="1">
          <mxGeometry x="470" y="60" width="120" height="80" as="geometry" />
        </mxCell>
        <mxCell id="AFtI0mJJeP0NbjCr_A5s-10" style="edgeStyle=orthogonalEdgeStyle;rounded=0;orthogonalLoop=1;jettySize=auto;html=1;entryX=0;entryY=0.5;entryDx=0;entryDy=0;" edge="1" parent="1" source="AFtI0mJJeP0NbjCr_A5s-1" target="AFtI0mJJeP0NbjCr_A5s-16">
          <mxGeometry relative="1" as="geometry">
            <mxPoint x="630" y="240" as="targetPoint" />
          </mxGeometry>
        </mxCell>
        <mxCell id="AFtI0mJJeP0NbjCr_A5s-1" value="Adresse eingestellt?" style="strokeWidth=1;html=1;shape=mxgraph.flowchart.decision;whiteSpace=wrap;" vertex="1" parent="1">
          <mxGeometry x="480" y="190" width="100" height="100" as="geometry" />
        </mxCell>
        <mxCell id="AFtI0mJJeP0NbjCr_A5s-11" value="Nein" style="text;html=1;strokeColor=none;fillColor=none;align=center;verticalAlign=middle;whiteSpace=wrap;rounded=0;" vertex="1" parent="1">
          <mxGeometry x="580" y="210" width="60" height="30" as="geometry" />
        </mxCell>
        <mxCell id="AFtI0mJJeP0NbjCr_A5s-12" value="Ja" style="text;html=1;strokeColor=none;fillColor=none;align=center;verticalAlign=middle;whiteSpace=wrap;rounded=0;" vertex="1" parent="1">
          <mxGeometry x="420" y="210" width="60" height="30" as="geometry" />
        </mxCell>
        <mxCell id="AFtI0mJJeP0NbjCr_A5s-13" value="Domain aus der E-Mail-Adresse parsen" style="rounded=1;whiteSpace=wrap;html=1;absoluteArcSize=1;arcSize=14;strokeWidth=1;" vertex="1" parent="1">
          <mxGeometry x="310" y="210" width="100" height="60" as="geometry" />
        </mxCell>
        <mxCell id="AFtI0mJJeP0NbjCr_A5s-16" value="Test fehlgeschlagen" style="shape=hexagon;perimeter=hexagonPerimeter2;whiteSpace=wrap;html=1;fixedSize=1;strokeWidth=1;" vertex="1" parent="1">
          <mxGeometry x="650" y="202.5" width="150" height="75" as="geometry" />
        </mxCell>
        <mxCell id="AFtI0mJJeP0NbjCr_A5s-17" value="SPF Eintrag der Domain lesen" style="rounded=1;whiteSpace=wrap;html=1;absoluteArcSize=1;arcSize=14;strokeWidth=1;" vertex="1" parent="1">
          <mxGeometry x="310" y="350" width="100" height="50" as="geometry" />
        </mxCell>
        <mxCell id="AFtI0mJJeP0NbjCr_A5s-18" style="edgeStyle=orthogonalEdgeStyle;rounded=0;orthogonalLoop=1;jettySize=auto;html=1;entryX=0.5;entryY=0;entryDx=0;entryDy=0;exitX=0.5;exitY=1;exitDx=0;exitDy=0;" edge="1" parent="1" source="AFtI0mJJeP0NbjCr_A5s-13" target="AFtI0mJJeP0NbjCr_A5s-17">
          <mxGeometry relative="1" as="geometry">
            <mxPoint x="540" y="350" as="targetPoint" />
            <mxPoint x="540" y="300" as="sourcePoint" />
          </mxGeometry>
        </mxCell>
        <mxCell id="AFtI0mJJeP0NbjCr_A5s-19" value="Gibt es den&lt;br&gt;SPF Eintrag?" style="strokeWidth=1;html=1;shape=mxgraph.flowchart.decision;whiteSpace=wrap;" vertex="1" parent="1">
          <mxGeometry x="480" y="325" width="100" height="100" as="geometry" />
        </mxCell>
        <mxCell id="AFtI0mJJeP0NbjCr_A5s-20" style="edgeStyle=orthogonalEdgeStyle;rounded=0;orthogonalLoop=1;jettySize=auto;html=1;exitX=1;exitY=0.5;exitDx=0;exitDy=0;entryX=0;entryY=0.5;entryDx=0;entryDy=0;entryPerimeter=0;" edge="1" parent="1" source="AFtI0mJJeP0NbjCr_A5s-17" target="AFtI0mJJeP0NbjCr_A5s-19">
          <mxGeometry relative="1" as="geometry">
            <mxPoint x="450" y="330" as="targetPoint" />
            <mxPoint x="540" y="410" as="sourcePoint" />
            <Array as="points">
              <mxPoint x="450" y="375" />
              <mxPoint x="450" y="375" />
            </Array>
          </mxGeometry>
        </mxCell>
        <mxCell id="AFtI0mJJeP0NbjCr_A5s-21" style="edgeStyle=orthogonalEdgeStyle;rounded=0;orthogonalLoop=1;jettySize=auto;html=1;entryX=0.5;entryY=1;entryDx=0;entryDy=0;exitX=1;exitY=0.5;exitDx=0;exitDy=0;exitPerimeter=0;" edge="1" parent="1" target="AFtI0mJJeP0NbjCr_A5s-16" source="AFtI0mJJeP0NbjCr_A5s-19">
          <mxGeometry relative="1" as="geometry">
            <mxPoint x="610" y="580" as="sourcePoint" />
            <mxPoint x="650" y="375" as="targetPoint" />
          </mxGeometry>
        </mxCell>
        <mxCell id="AFtI0mJJeP0NbjCr_A5s-22" value="Nein" style="text;html=1;strokeColor=none;fillColor=none;align=center;verticalAlign=middle;whiteSpace=wrap;rounded=0;" vertex="1" parent="1">
          <mxGeometry x="580" y="350" width="60" height="30" as="geometry" />
        </mxCell>
        <mxCell id="AFtI0mJJeP0NbjCr_A5s-24" style="edgeStyle=orthogonalEdgeStyle;rounded=0;orthogonalLoop=1;jettySize=auto;html=1;entryX=1;entryY=0.5;entryDx=0;entryDy=0;exitX=0;exitY=0.5;exitDx=0;exitDy=0;exitPerimeter=0;" edge="1" parent="1" source="AFtI0mJJeP0NbjCr_A5s-1" target="AFtI0mJJeP0NbjCr_A5s-13">
          <mxGeometry relative="1" as="geometry">
            <mxPoint x="530" y="340" as="targetPoint" />
            <mxPoint x="530" y="290" as="sourcePoint" />
          </mxGeometry>
        </mxCell>
        <mxCell id="AFtI0mJJeP0NbjCr_A5s-26" value="Ja" style="text;html=1;strokeColor=none;fillColor=none;align=center;verticalAlign=middle;whiteSpace=wrap;rounded=0;" vertex="1" parent="1">
          <mxGeometry x="480" y="425" width="60" height="30" as="geometry" />
        </mxCell>
        <mxCell id="AFtI0mJJeP0NbjCr_A5s-29" style="edgeStyle=orthogonalEdgeStyle;rounded=0;orthogonalLoop=1;jettySize=auto;html=1;exitX=0.5;exitY=1;exitDx=0;exitDy=0;exitPerimeter=0;entryX=0.5;entryY=0;entryDx=0;entryDy=0;" edge="1" parent="1" source="AFtI0mJJeP0NbjCr_A5s-19" target="AFtI0mJJeP0NbjCr_A5s-30">
          <mxGeometry relative="1" as="geometry">
            <mxPoint x="530" y="480" as="targetPoint" />
            <mxPoint x="370" y="280" as="sourcePoint" />
          </mxGeometry>
        </mxCell>
        <mxCell id="AFtI0mJJeP0NbjCr_A5s-30" value="SPF Eintrag parsen" style="rounded=1;whiteSpace=wrap;html=1;absoluteArcSize=1;arcSize=14;strokeWidth=1;" vertex="1" parent="1">
          <mxGeometry x="480" y="470" width="100" height="50" as="geometry" />
        </mxCell>
        <mxCell id="AFtI0mJJeP0NbjCr_A5s-31" value="Ist die IP des Systems enthalten?" style="strokeWidth=1;html=1;shape=mxgraph.flowchart.decision;whiteSpace=wrap;" vertex="1" parent="1">
          <mxGeometry x="675" y="445" width="100" height="100" as="geometry" />
        </mxCell>
        <mxCell id="AFtI0mJJeP0NbjCr_A5s-32" style="edgeStyle=orthogonalEdgeStyle;rounded=0;orthogonalLoop=1;jettySize=auto;html=1;exitX=1;exitY=0.5;exitDx=0;exitDy=0;" edge="1" parent="1" source="AFtI0mJJeP0NbjCr_A5s-30" target="AFtI0mJJeP0NbjCr_A5s-31">
          <mxGeometry relative="1" as="geometry">
            <mxPoint x="540" y="480" as="targetPoint" />
            <mxPoint x="540" y="435" as="sourcePoint" />
          </mxGeometry>
        </mxCell>
        <mxCell id="AFtI0mJJeP0NbjCr_A5s-33" style="edgeStyle=orthogonalEdgeStyle;rounded=0;orthogonalLoop=1;jettySize=auto;html=1;exitX=0.5;exitY=0;exitDx=0;exitDy=0;exitPerimeter=0;entryX=0.5;entryY=1;entryDx=0;entryDy=0;" edge="1" parent="1" source="AFtI0mJJeP0NbjCr_A5s-31" target="AFtI0mJJeP0NbjCr_A5s-16">
          <mxGeometry relative="1" as="geometry">
            <mxPoint x="685" y="505" as="targetPoint" />
            <mxPoint x="590" y="505" as="sourcePoint" />
          </mxGeometry>
        </mxCell>
        <mxCell id="AFtI0mJJeP0NbjCr_A5s-34" value="Nein" style="text;html=1;strokeColor=none;fillColor=none;align=center;verticalAlign=middle;whiteSpace=wrap;rounded=0;" vertex="1" parent="1">
          <mxGeometry x="670" y="415" width="60" height="30" as="geometry" />
        </mxCell>
        <mxCell id="AFtI0mJJeP0NbjCr_A5s-35" style="edgeStyle=orthogonalEdgeStyle;rounded=0;orthogonalLoop=1;jettySize=auto;html=1;exitX=0.5;exitY=1;exitDx=0;exitDy=0;exitPerimeter=0;entryX=0.5;entryY=0;entryDx=0;entryDy=0;" edge="1" parent="1" source="AFtI0mJJeP0NbjCr_A5s-31" target="AFtI0mJJeP0NbjCr_A5s-37">
          <mxGeometry relative="1" as="geometry">
            <mxPoint x="725" y="600" as="targetPoint" />
            <mxPoint x="590" y="505" as="sourcePoint" />
          </mxGeometry>
        </mxCell>
        <mxCell id="AFtI0mJJeP0NbjCr_A5s-36" value="Ja" style="text;html=1;strokeColor=none;fillColor=none;align=center;verticalAlign=middle;whiteSpace=wrap;rounded=0;" vertex="1" parent="1">
          <mxGeometry x="675" y="545" width="60" height="30" as="geometry" />
        </mxCell>
        <mxCell id="AFtI0mJJeP0NbjCr_A5s-37" value="Entsprechenden DKIM Eintrag lesen" style="rounded=1;whiteSpace=wrap;html=1;absoluteArcSize=1;arcSize=14;strokeWidth=1;" vertex="1" parent="1">
          <mxGeometry x="675" y="600" width="100" height="60" as="geometry" />
        </mxCell>
        <mxCell id="AFtI0mJJeP0NbjCr_A5s-38" value="Stimmt der gegebene DKIM Schlüssel" style="strokeWidth=1;html=1;shape=mxgraph.flowchart.decision;whiteSpace=wrap;" vertex="1" parent="1">
          <mxGeometry x="480" y="580" width="100" height="100" as="geometry" />
        </mxCell>
        <mxCell id="AFtI0mJJeP0NbjCr_A5s-39" style="edgeStyle=orthogonalEdgeStyle;rounded=0;orthogonalLoop=1;jettySize=auto;html=1;exitX=0;exitY=0.5;exitDx=0;exitDy=0;entryX=1;entryY=0.5;entryDx=0;entryDy=0;entryPerimeter=0;" edge="1" parent="1" source="AFtI0mJJeP0NbjCr_A5s-37" target="AFtI0mJJeP0NbjCr_A5s-38">
          <mxGeometry relative="1" as="geometry">
            <mxPoint x="735" y="610" as="targetPoint" />
            <mxPoint x="735" y="555" as="sourcePoint" />
          </mxGeometry>
        </mxCell>
        <mxCell id="AFtI0mJJeP0NbjCr_A5s-40" style="edgeStyle=orthogonalEdgeStyle;rounded=0;orthogonalLoop=1;jettySize=auto;html=1;exitX=0.5;exitY=1;exitDx=0;exitDy=0;entryX=1;entryY=0.5;entryDx=0;entryDy=0;exitPerimeter=0;" edge="1" parent="1" source="AFtI0mJJeP0NbjCr_A5s-38" target="AFtI0mJJeP0NbjCr_A5s-16">
          <mxGeometry relative="1" as="geometry">
            <mxPoint x="590" y="635" as="targetPoint" />
            <mxPoint x="685" y="635" as="sourcePoint" />
            <Array as="points">
              <mxPoint x="530" y="700" />
              <mxPoint x="860" y="700" />
              <mxPoint x="860" y="240" />
            </Array>
          </mxGeometry>
        </mxCell>
        <mxCell id="AFtI0mJJeP0NbjCr_A5s-41" value="Nein" style="text;html=1;strokeColor=none;fillColor=none;align=center;verticalAlign=middle;whiteSpace=wrap;rounded=0;" vertex="1" parent="1">
          <mxGeometry x="530" y="670" width="60" height="30" as="geometry" />
        </mxCell>
        <mxCell id="AFtI0mJJeP0NbjCr_A5s-42" style="edgeStyle=orthogonalEdgeStyle;rounded=0;orthogonalLoop=1;jettySize=auto;html=1;exitX=0;exitY=0.5;exitDx=0;exitDy=0;exitPerimeter=0;entryX=1;entryY=0.5;entryDx=0;entryDy=0;" edge="1" parent="1" source="AFtI0mJJeP0NbjCr_A5s-38" target="AFtI0mJJeP0NbjCr_A5s-43">
          <mxGeometry relative="1" as="geometry">
            <mxPoint x="410" y="620" as="targetPoint" />
            <mxPoint x="685" y="635" as="sourcePoint" />
          </mxGeometry>
        </mxCell>
        <mxCell id="AFtI0mJJeP0NbjCr_A5s-43" value="Test erfolgreich" style="shape=hexagon;perimeter=hexagonPerimeter2;whiteSpace=wrap;html=1;fixedSize=1;strokeWidth=1;" vertex="1" parent="1">
          <mxGeometry x="250" y="592.5" width="150" height="75" as="geometry" />
        </mxCell>
        <mxCell id="AFtI0mJJeP0NbjCr_A5s-44" value="Ja" style="text;html=1;strokeColor=none;fillColor=none;align=center;verticalAlign=middle;whiteSpace=wrap;rounded=0;" vertex="1" parent="1">
          <mxGeometry x="420" y="600" width="60" height="30" as="geometry" />
        </mxCell>
      </root>
    </mxGraphModel>
  </diagram>
</mxfile>
